<svg width="158" height="94" viewBox="0 0 158 94" fill="none" xmlns="http://www.w3.org/2000/svg">
<g filter="url(#filter0_d_2_37)">
<path d="M122.839 22.6056H131.475L133.926 26.2824V29.1041L123.609 39.7922V39.9062H133.926V43.127H120.189V38.7377L130.734 27.907L129.338 25.8263H124.179L121.842 28.135L120.018 25.4843L122.839 22.6056ZM145.687 22.6056H150.161V33.6073H151.871V36.8281H150.161V43.127H146.713V36.8281H139.302L136.252 32.3533L145.687 22.6056ZM140.328 32.7238L140.927 33.6073H146.713V26.1684L140.328 32.7238Z" fill="black"/>
</g>
<rect x="107.806" y="3.47791" width="8.69405" height="76.5077" fill="#212121"/>
<rect x="92.1568" y="12.1719" width="8.69405" height="76.5077" fill="#E00707"/>
<rect x="76.5076" width="8.69405" height="76.5077" fill="#2C95F8"/>
<rect x="64.3359" y="17.3881" width="8.69405" height="76.5077" fill="#F39702"/>
<rect x="45.209" y="10.433" width="8.69405" height="76.5077" fill="#212121"/>
<rect x="29.5598" y="15.6497" width="8.69405" height="76.5077" fill="#2C95F8"/>
<rect x="13.9106" width="8.69405" height="76.5077" fill="#F39702"/>
<g filter="url(#filter1_d_2_37)">
<mask id="path-9-outside-1_2_37" maskUnits="userSpaceOnUse" x="11.6492" y="13.1719" width="107" height="34" fill="black">
<rect fill="white" x="11.6492" y="13.1719" width="107" height="34"/>
<path d="M20.1315 22.6144H27.8352L29.7817 25.5204L28.3835 26.9734L26.766 24.5883H20.9814L20.1315 25.4656V33.6079L21.2007 35.198H26.9853L28.6028 33.5256L29.7268 35.198L27.8352 37.1719H20.1589L17.9383 33.882V24.8898L20.1315 22.6144ZM34.2122 22.6144H35.4185L38.0229 24.177L39.5308 22.6144H45.1783L46.6039 24.6979L44.959 25.822L44.1365 24.5883H40.3806L39.1744 25.8768V35.198H43.0399V37.1719H34.2122V35.198H36.9812V26.1509L35.912 24.5883H34.2122V22.6144ZM60.6846 22.587H62.9053V38.4878L58.464 43.121H50.7877V41.1197H57.5593L60.6846 37.9121V37.1719H53.5293L50.7877 33.1144V22.587H52.981V32.8403L54.5985 35.1706H60.6846V22.587ZM71.6126 22.6144H77.1779L79.3437 25.9042V34.8964L77.1505 37.1719H71.64L69.4194 35.8559V43.0936H67.2262V22.6144H69.4194V23.9577L71.6126 22.6144ZM69.4194 33.6079L70.516 35.198H76.3006L77.1231 34.3481V26.1784L76.0813 24.6157H70.2693L69.4194 25.4656V33.6079ZM86.4061 16.6653H88.5994V22.587H93.0406V24.5883H88.5994V33.6079L89.6686 35.1706H92.4375L94.0824 33.5256L95.2064 35.1706L93.3422 37.1719H88.5994L86.4061 33.9369V24.5883H84.2403V22.587H86.4061V16.6653ZM102.324 22.6144H110.082L112.275 25.9042V34.8964L110.082 37.1719H102.351L100.13 33.882V24.8898L102.324 22.6144ZM102.296 33.6079L103.393 35.198H109.205L110.027 34.3207V26.1509L108.986 24.5883H103.146L102.296 25.493V33.6079Z"/>
<path d="M15.745 39.5022H58.5938V39.7763H15.745V39.5022ZM62.2046 39.5022H66.9531V39.7763H62.2046V39.5022ZM69.6968 39.5022H114.386V39.7763H69.6968V39.5022Z"/>
</mask>
<path d="M20.1315 22.6144H27.8352L29.7817 25.5204L28.3835 26.9734L26.766 24.5883H20.9814L20.1315 25.4656V33.6079L21.2007 35.198H26.9853L28.6028 33.5256L29.7268 35.198L27.8352 37.1719H20.1589L17.9383 33.882V24.8898L20.1315 22.6144ZM34.2122 22.6144H35.4185L38.0229 24.177L39.5308 22.6144H45.1783L46.6039 24.6979L44.959 25.822L44.1365 24.5883H40.3806L39.1744 25.8768V35.198H43.0399V37.1719H34.2122V35.198H36.9812V26.1509L35.912 24.5883H34.2122V22.6144ZM60.6846 22.587H62.9053V38.4878L58.464 43.121H50.7877V41.1197H57.5593L60.6846 37.9121V37.1719H53.5293L50.7877 33.1144V22.587H52.981V32.8403L54.5985 35.1706H60.6846V22.587ZM71.6126 22.6144H77.1779L79.3437 25.9042V34.8964L77.1505 37.1719H71.64L69.4194 35.8559V43.0936H67.2262V22.6144H69.4194V23.9577L71.6126 22.6144ZM69.4194 33.6079L70.516 35.198H76.3006L77.1231 34.3481V26.1784L76.0813 24.6157H70.2693L69.4194 25.4656V33.6079ZM86.4061 16.6653H88.5994V22.587H93.0406V24.5883H88.5994V33.6079L89.6686 35.1706H92.4375L94.0824 33.5256L95.2064 35.1706L93.3422 37.1719H88.5994L86.4061 33.9369V24.5883H84.2403V22.587H86.4061V16.6653ZM102.324 22.6144H110.082L112.275 25.9042V34.8964L110.082 37.1719H102.351L100.13 33.882V24.8898L102.324 22.6144ZM102.296 33.6079L103.393 35.198H109.205L110.027 34.3207V26.1509L108.986 24.5883H103.146L102.296 25.493V33.6079Z" fill="black"/>
<path d="M15.745 39.5022H58.5938V39.7763H15.745V39.5022ZM62.2046 39.5022H66.9531V39.7763H62.2046V39.5022ZM69.6968 39.5022H114.386V39.7763H69.6968V39.5022Z" fill="black"/>
<path d="M20.1315 22.6144V19.1368H18.6534L17.6276 20.201L20.1315 22.6144ZM27.8352 22.6144L30.7245 20.6791L29.6915 19.1368H27.8352V22.6144ZM29.7817 25.5204L32.2875 27.9317L34.2302 25.9129L32.671 23.5851L29.7817 25.5204ZM28.3835 26.9734L25.5053 28.9253L27.9139 32.4769L30.8894 29.3847L28.3835 26.9734ZM26.766 24.5883L29.6442 22.6364L28.6095 21.1107H26.766V24.5883ZM20.9814 24.5883V21.1107H19.5084L18.4836 22.1686L20.9814 24.5883ZM20.1315 25.4656L17.6337 23.0459L16.6539 24.0573V25.4656H20.1315ZM20.1315 33.6079H16.6539V34.6684L17.2456 35.5484L20.1315 33.6079ZM21.2007 35.198L18.3148 37.1385L19.3484 38.6756H21.2007V35.198ZM26.9853 35.198V38.6756H28.4598L29.485 37.6157L26.9853 35.198ZM28.6028 33.5256L31.4891 31.5857L29.0913 28.0184L26.1031 31.1079L28.6028 33.5256ZM29.7268 35.198L32.2376 37.6042L34.1753 35.5823L32.6131 33.258L29.7268 35.198ZM27.8352 37.1719V40.6495H29.3192L30.346 39.5781L27.8352 37.1719ZM20.1589 37.1719L17.2765 39.1175L18.3106 40.6495H20.1589V37.1719ZM17.9383 33.882H14.4606V34.9459L15.0558 35.8277L17.9383 33.882ZM17.9383 24.8898L15.4344 22.4765L14.4606 23.4867V24.8898H17.9383ZM20.1315 22.6144V26.092H27.8352V22.6144V19.1368H20.1315V22.6144ZM27.8352 22.6144L24.9458 24.5497L26.8923 27.4557L29.7817 25.5204L32.671 23.5851L30.7245 20.6791L27.8352 22.6144ZM29.7817 25.5204L27.2758 23.1091L25.8776 24.5621L28.3835 26.9734L30.8894 29.3847L32.2875 27.9317L29.7817 25.5204ZM28.3835 26.9734L31.2617 25.0215L29.6442 22.6364L26.766 24.5883L23.8878 26.5402L25.5053 28.9253L28.3835 26.9734ZM26.766 24.5883V21.1107H20.9814V24.5883V28.0659H26.766V24.5883ZM20.9814 24.5883L18.4836 22.1686L17.6337 23.0459L20.1315 25.4656L22.6293 27.8853L23.4791 27.008L20.9814 24.5883ZM20.1315 25.4656H16.6539V33.6079H20.1315H23.6091V25.4656H20.1315ZM20.1315 33.6079L17.2456 35.5484L18.3148 37.1385L21.2007 35.198L24.0866 33.2575L23.0174 31.6674L20.1315 33.6079ZM21.2007 35.198V38.6756H26.9853V35.198V31.7204H21.2007V35.198ZM26.9853 35.198L29.485 37.6157L31.1025 35.9434L28.6028 33.5256L26.1031 31.1079L24.4856 32.7802L26.9853 35.198ZM28.6028 33.5256L25.7165 35.4656L26.8406 37.1379L29.7268 35.198L32.6131 33.258L31.4891 31.5857L28.6028 33.5256ZM29.7268 35.198L27.216 32.7918L25.3244 34.7657L27.8352 37.1719L30.346 39.5781L32.2376 37.6042L29.7268 35.198ZM27.8352 37.1719V33.6943H20.1589V37.1719V40.6495H27.8352V37.1719ZM20.1589 37.1719L23.0413 35.2262L20.8207 31.9364L17.9383 33.882L15.0558 35.8277L17.2765 39.1175L20.1589 37.1719ZM17.9383 33.882H21.4159V24.8898H17.9383H14.4606V33.882H17.9383ZM17.9383 24.8898L20.4422 27.3032L22.6354 25.0278L20.1315 22.6144L17.6276 20.201L15.4344 22.4765L17.9383 24.8898ZM34.2122 22.6144V19.1368H30.7346V22.6144H34.2122ZM35.4185 22.6144L37.2077 19.6323L36.3817 19.1368H35.4185V22.6144ZM38.0229 24.177L36.2337 27.1591L38.6052 28.582L40.5255 26.5918L38.0229 24.177ZM39.5308 22.6144V19.1368H38.0538L37.0282 20.1996L39.5308 22.6144ZM45.1783 22.6144L48.0484 20.6506L47.0126 19.1368H45.1783V22.6144ZM46.6039 24.6979L48.566 27.5692L51.4389 25.606L49.474 22.7342L46.6039 24.6979ZM44.959 25.822L42.0654 27.751L44.0167 30.6779L46.921 28.6932L44.959 25.822ZM44.1365 24.5883L47.0301 22.6592L45.9977 21.1107H44.1365V24.5883ZM40.3806 24.5883V21.1107H38.8726L37.8419 22.2116L40.3806 24.5883ZM39.1744 25.8768L36.6356 23.5001L35.6968 24.503V25.8768H39.1744ZM39.1744 35.198H35.6968V38.6756H39.1744V35.198ZM43.0399 35.198H46.5175V31.7204H43.0399V35.198ZM43.0399 37.1719V40.6495H46.5175V37.1719H43.0399ZM34.2122 37.1719H30.7346V40.6495H34.2122V37.1719ZM34.2122 35.198V31.7204H30.7346V35.198H34.2122ZM36.9812 35.198V38.6756H40.4588V35.198H36.9812ZM36.9812 26.1509H40.4588V25.0751L39.8513 24.1872L36.9812 26.1509ZM35.912 24.5883L38.7821 22.6245L37.7463 21.1107H35.912V24.5883ZM34.2122 24.5883H30.7346V28.0659H34.2122V24.5883ZM34.2122 22.6144V26.092H35.4185V22.6144V19.1368H34.2122V22.6144ZM35.4185 22.6144L33.6293 25.5964L36.2337 27.1591L38.0229 24.177L39.8122 21.195L37.2077 19.6323L35.4185 22.6144ZM38.0229 24.177L40.5255 26.5918L42.0333 25.0291L39.5308 22.6144L37.0282 20.1996L35.5204 21.7623L38.0229 24.177ZM39.5308 22.6144V26.092H45.1783V22.6144V19.1368H39.5308V22.6144ZM45.1783 22.6144L42.3082 24.5781L43.7338 26.6617L46.6039 24.6979L49.474 22.7342L48.0484 20.6506L45.1783 22.6144ZM46.6039 24.6979L44.6419 21.8267L42.997 22.9507L44.959 25.822L46.921 28.6932L48.566 27.5692L46.6039 24.6979ZM44.959 25.822L47.8526 23.8929L47.0301 22.6592L44.1365 24.5883L41.243 26.5173L42.0654 27.751L44.959 25.822ZM44.1365 24.5883V21.1107H40.3806V24.5883V28.0659H44.1365V24.5883ZM40.3806 24.5883L37.8419 22.2116L36.6356 23.5001L39.1744 25.8768L41.7131 28.2535L42.9194 26.965L40.3806 24.5883ZM39.1744 25.8768H35.6968V35.198H39.1744H42.652V25.8768H39.1744ZM39.1744 35.198V38.6756H43.0399V35.198V31.7204H39.1744V35.198ZM43.0399 35.198H39.5623V37.1719H43.0399H46.5175V35.198H43.0399ZM43.0399 37.1719V33.6943H34.2122V37.1719V40.6495H43.0399V37.1719ZM34.2122 37.1719H37.6898V35.198H34.2122H30.7346V37.1719H34.2122ZM34.2122 35.198V38.6756H36.9812V35.198V31.7204H34.2122V35.198ZM36.9812 35.198H40.4588V26.1509H36.9812H33.5035V35.198H36.9812ZM36.9812 26.1509L39.8513 24.1872L38.7821 22.6245L35.912 24.5883L33.0419 26.552L34.1111 28.1147L36.9812 26.1509ZM35.912 24.5883V21.1107H34.2122V24.5883V28.0659H35.912V24.5883ZM34.2122 24.5883H37.6898V22.6144H34.2122H30.7346V24.5883H34.2122ZM60.6846 22.587V19.1093H57.207V22.587H60.6846ZM62.9053 22.587H66.3829V19.1093H62.9053V22.587ZM62.9053 38.4878L65.4158 40.8943L66.3829 39.8854V38.4878H62.9053ZM58.464 43.121V46.5986H59.9478L60.9745 45.5275L58.464 43.121ZM50.7877 43.121H47.3101V46.5986H50.7877V43.121ZM50.7877 41.1197V37.642H47.3101V41.1197H50.7877ZM57.5593 41.1197V44.5973H59.0263L60.0501 43.5466L57.5593 41.1197ZM60.6846 37.9121L63.1754 40.339L64.1623 39.3262V37.9121H60.6846ZM60.6846 37.1719H64.1623V33.6943H60.6846V37.1719ZM53.5293 37.1719L50.6477 39.1188L51.682 40.6495H53.5293V37.1719ZM50.7877 33.1144H47.3101V34.1792L47.9062 35.0614L50.7877 33.1144ZM50.7877 22.587V19.1093H47.3101V22.587H50.7877ZM52.981 22.587H56.4586V19.1093H52.981V22.587ZM52.981 32.8403H49.5033V33.9289L50.1241 34.8233L52.981 32.8403ZM54.5985 35.1706L51.7416 37.1536L52.7791 38.6482H54.5985V35.1706ZM60.6846 35.1706V38.6482H64.1623V35.1706H60.6846ZM60.6846 22.587V26.0646H62.9053V22.587V19.1093H60.6846V22.587ZM62.9053 22.587H59.4277V38.4878H62.9053H66.3829V22.587H62.9053ZM62.9053 38.4878L60.3948 36.0813L55.9535 40.7145L58.464 43.121L60.9745 45.5275L65.4158 40.8943L62.9053 38.4878ZM58.464 43.121V39.6434H50.7877V43.121V46.5986H58.464V43.121ZM50.7877 43.121H54.2654V41.1197H50.7877H47.3101V43.121H50.7877ZM50.7877 41.1197V44.5973H57.5593V41.1197V37.642H50.7877V41.1197ZM57.5593 41.1197L60.0501 43.5466L63.1754 40.339L60.6846 37.9121L58.1939 35.4852L55.0685 38.6928L57.5593 41.1197ZM60.6846 37.9121H64.1623V37.1719H60.6846H57.207V37.9121H60.6846ZM60.6846 37.1719V33.6943H53.5293V37.1719V40.6495H60.6846V37.1719ZM53.5293 37.1719L56.4108 35.2249L53.6693 31.1674L50.7877 33.1144L47.9062 35.0614L50.6477 39.1188L53.5293 37.1719ZM50.7877 33.1144H54.2654V22.587H50.7877H47.3101V33.1144H50.7877ZM50.7877 22.587V26.0646H52.981V22.587V19.1093H50.7877V22.587ZM52.981 22.587H49.5033V32.8403H52.981H56.4586V22.587H52.981ZM52.981 32.8403L50.1241 34.8233L51.7416 37.1536L54.5985 35.1706L57.4553 33.1876L55.8378 30.8573L52.981 32.8403ZM54.5985 35.1706V38.6482H60.6846V35.1706V31.6929H54.5985V35.1706ZM60.6846 35.1706H64.1623V22.587H60.6846H57.207V35.1706H60.6846ZM71.6126 22.6144V19.1368H70.6322L69.7962 19.6488L71.6126 22.6144ZM77.1779 22.6144L80.0826 20.7021L79.0521 19.1368H77.1779V22.6144ZM79.3437 25.9042H82.8213V24.8623L82.2484 23.992L79.3437 25.9042ZM79.3437 34.8964L81.8476 37.3098L82.8213 36.2995V34.8964H79.3437ZM77.1505 37.1719V40.6495H78.6286L79.6544 39.5853L77.1505 37.1719ZM71.64 37.1719L69.8671 40.1636L70.687 40.6495H71.64V37.1719ZM69.4194 35.8559L71.1923 32.8642L65.9418 29.7528V35.8559H69.4194ZM69.4194 43.0936V46.5712H72.897V43.0936H69.4194ZM67.2262 43.0936H63.7486V46.5712H67.2262V43.0936ZM67.2262 22.6144V19.1368H63.7486V22.6144H67.2262ZM69.4194 22.6144H72.897V19.1368H69.4194V22.6144ZM69.4194 23.9577H65.9418V30.1659L71.2358 26.9233L69.4194 23.9577ZM69.4194 33.6079H65.9418V34.6908L66.5566 35.5823L69.4194 33.6079ZM70.516 35.198L67.6532 37.1723L68.6899 38.6756H70.516V35.198ZM76.3006 35.198V38.6756H77.7746L78.7997 37.6164L76.3006 35.198ZM77.1231 34.3481L79.6221 36.7665L80.6007 35.7553V34.3481H77.1231ZM77.1231 26.1784H80.6007V25.1254L80.0166 24.2493L77.1231 26.1784ZM76.0813 24.6157L78.9749 22.6867L77.9425 21.1381H76.0813V24.6157ZM70.2693 24.6157V21.1381H68.8288L67.8102 22.1566L70.2693 24.6157ZM69.4194 25.4656L66.9603 23.0065L65.9418 24.0251V25.4656H69.4194ZM71.6126 22.6144V26.092H77.1779V22.6144V19.1368H71.6126V22.6144ZM77.1779 22.6144L74.2732 24.5266L76.439 27.8165L79.3437 25.9042L82.2484 23.992L80.0826 20.7021L77.1779 22.6144ZM79.3437 25.9042H75.8661V34.8964H79.3437H82.8213V25.9042H79.3437ZM79.3437 34.8964L76.8398 32.483L74.6466 34.7585L77.1505 37.1719L79.6544 39.5853L81.8476 37.3098L79.3437 34.8964ZM77.1505 37.1719V33.6943H71.64V37.1719V40.6495H77.1505V37.1719ZM71.64 37.1719L73.4129 34.1801L71.1923 32.8642L69.4194 35.8559L67.6465 38.8477L69.8671 40.1636L71.64 37.1719ZM69.4194 35.8559H65.9418V43.0936H69.4194H72.897V35.8559H69.4194ZM69.4194 43.0936V39.6159H67.2262V43.0936V46.5712H69.4194V43.0936ZM67.2262 43.0936H70.7038V22.6144H67.2262H63.7486V43.0936H67.2262ZM67.2262 22.6144V26.092H69.4194V22.6144V19.1368H67.2262V22.6144ZM69.4194 22.6144H65.9418V23.9577H69.4194H72.897V22.6144H69.4194ZM69.4194 23.9577L71.2358 26.9233L73.429 25.5799L71.6126 22.6144L69.7962 19.6488L67.603 20.9922L69.4194 23.9577ZM69.4194 33.6079L66.5566 35.5823L67.6532 37.1723L70.516 35.198L73.3788 33.2236L72.2822 31.6335L69.4194 33.6079ZM70.516 35.198V38.6756H76.3006V35.198V31.7204H70.516V35.198ZM76.3006 35.198L78.7997 37.6164L79.6221 36.7665L77.1231 34.3481L74.6241 31.9297L73.8016 32.7796L76.3006 35.198ZM77.1231 34.3481H80.6007V26.1784H77.1231H73.6455V34.3481H77.1231ZM77.1231 26.1784L80.0166 24.2493L78.9749 22.6867L76.0813 24.6157L73.1877 26.5447L74.2295 28.1074L77.1231 26.1784ZM76.0813 24.6157V21.1381H70.2693V24.6157V28.0933H76.0813V24.6157ZM70.2693 24.6157L67.8102 22.1566L66.9603 23.0065L69.4194 25.4656L71.8784 27.9246L72.7283 27.0747L70.2693 24.6157ZM69.4194 25.4656H65.9418V33.6079H69.4194H72.897V25.4656H69.4194ZM86.4061 16.6653V13.1876H82.9285V16.6653H86.4061ZM88.5994 16.6653H92.077V13.1876H88.5994V16.6653ZM88.5994 22.587H85.1217V26.0646H88.5994V22.587ZM93.0406 22.587H96.5182V19.1093H93.0406V22.587ZM93.0406 24.5883V28.0659H96.5182V24.5883H93.0406ZM88.5994 24.5883V21.1107H85.1217V24.5883H88.5994ZM88.5994 33.6079H85.1217V34.6837L85.7293 35.5716L88.5994 33.6079ZM89.6686 35.1706L86.7984 37.1343L87.8343 38.6482H89.6686V35.1706ZM92.4375 35.1706V38.6482H93.878L94.8965 37.6296L92.4375 35.1706ZM94.0824 33.5256L96.9537 31.5636L94.5881 28.1018L91.6234 31.0666L94.0824 33.5256ZM95.2064 35.1706L97.7511 37.5409L99.6472 35.5054L98.0777 33.2085L95.2064 35.1706ZM93.3422 37.1719V40.6495H94.8554L95.8868 39.5422L93.3422 37.1719ZM88.5994 37.1719L85.7209 39.1234L86.7556 40.6495H88.5994V37.1719ZM86.4061 33.9369H82.9285V35.0046L83.5277 35.8884L86.4061 33.9369ZM86.4061 24.5883H89.8838V21.1107H86.4061V24.5883ZM84.2403 24.5883H80.7627V28.0659H84.2403V24.5883ZM84.2403 22.587V19.1093H80.7627V22.587H84.2403ZM86.4061 22.587V26.0646H89.8838V22.587H86.4061ZM86.4061 16.6653V20.1429H88.5994V16.6653V13.1876H86.4061V16.6653ZM88.5994 16.6653H85.1217V22.587H88.5994H92.077V16.6653H88.5994ZM88.5994 22.587V26.0646H93.0406V22.587V19.1093H88.5994V22.587ZM93.0406 22.587H89.563V24.5883H93.0406H96.5182V22.587H93.0406ZM93.0406 24.5883V21.1107H88.5994V24.5883V28.0659H93.0406V24.5883ZM88.5994 24.5883H85.1217V33.6079H88.5994H92.077V24.5883H88.5994ZM88.5994 33.6079L85.7293 35.5716L86.7984 37.1343L89.6686 35.1706L92.5387 33.2068L91.4695 31.6441L88.5994 33.6079ZM89.6686 35.1706V38.6482H92.4375V35.1706V31.6929H89.6686V35.1706ZM92.4375 35.1706L94.8965 37.6296L96.5415 35.9847L94.0824 33.5256L91.6234 31.0666L89.9784 32.7115L92.4375 35.1706ZM94.0824 33.5256L91.2111 35.4877L92.3352 37.1326L95.2064 35.1706L98.0777 33.2085L96.9537 31.5636L94.0824 33.5256ZM95.2064 35.1706L92.6618 32.8002L90.7975 34.8015L93.3422 37.1719L95.8868 39.5422L97.7511 37.5409L95.2064 35.1706ZM93.3422 37.1719V33.6943H88.5994V37.1719V40.6495H93.3422V37.1719ZM88.5994 37.1719L91.4778 35.2204L89.2846 31.9854L86.4061 33.9369L83.5277 35.8884L85.7209 39.1234L88.5994 37.1719ZM86.4061 33.9369H89.8838V24.5883H86.4061H82.9285V33.9369H86.4061ZM86.4061 24.5883V21.1107H84.2403V24.5883V28.0659H86.4061V24.5883ZM84.2403 24.5883H87.718V22.587H84.2403H80.7627V24.5883H84.2403ZM84.2403 22.587V26.0646H86.4061V22.587V19.1093H84.2403V22.587ZM86.4061 22.587H89.8838V16.6653H86.4061H82.9285V22.587H86.4061ZM102.324 22.6144V19.1368H100.846L99.8198 20.201L102.324 22.6144ZM110.082 22.6144L112.976 20.6853L111.943 19.1368H110.082V22.6144ZM112.275 25.9042H115.753V24.8513L115.169 23.9752L112.275 25.9042ZM112.275 34.8964L114.779 37.3098L115.753 36.2995V34.8964H112.275ZM110.082 37.1719V40.6495H111.56L112.586 39.5853L110.082 37.1719ZM102.351 37.1719L99.4687 39.1175L100.503 40.6495H102.351V37.1719ZM100.13 33.882H96.6528V34.9459L97.248 35.8277L100.13 33.882ZM100.13 24.8898L97.6266 22.4765L96.6528 23.4867V24.8898H100.13ZM102.296 33.6079H98.8186V34.6908L99.4334 35.5823L102.296 33.6079ZM103.393 35.198L100.53 37.1723L101.567 38.6756H103.393V35.198ZM109.205 35.198V38.6756H110.712L111.742 37.5765L109.205 35.198ZM110.027 34.3207L112.564 36.6992L113.505 35.6959V34.3207H110.027ZM110.027 26.1509H113.505V25.098L112.921 24.2219L110.027 26.1509ZM108.986 24.5883L111.879 22.6592L110.847 21.1107H108.986V24.5883ZM103.146 24.5883V21.1107H101.642L100.611 22.2072L103.146 24.5883ZM102.296 25.493L99.7616 23.1119L98.8186 24.1157V25.493H102.296ZM102.324 22.6144V26.092H110.082V22.6144V19.1368H102.324V22.6144ZM110.082 22.6144L107.189 24.5434L109.382 27.8332L112.275 25.9042L115.169 23.9752L112.976 20.6853L110.082 22.6144ZM112.275 25.9042H108.798V34.8964H112.275H115.753V25.9042H112.275ZM112.275 34.8964L109.772 32.483L107.578 34.7585L110.082 37.1719L112.586 39.5853L114.779 37.3098L112.275 34.8964ZM110.082 37.1719V33.6943H102.351V37.1719V40.6495H110.082V37.1719ZM102.351 37.1719L105.234 35.2262L103.013 31.9364L100.13 33.882L97.248 35.8277L99.4687 39.1175L102.351 37.1719ZM100.13 33.882H103.608V24.8898H100.13H96.6528V33.882H100.13ZM100.13 24.8898L102.634 27.3032L104.828 25.0278L102.324 22.6144L99.8198 20.201L97.6266 22.4765L100.13 24.8898ZM102.296 33.6079L99.4334 35.5823L100.53 37.1723L103.393 35.198L106.256 33.2236L105.159 31.6335L102.296 33.6079ZM103.393 35.198V38.6756H109.205V35.198V31.7204H103.393V35.198ZM109.205 35.198L111.742 37.5765L112.564 36.6992L110.027 34.3207L107.49 31.9422L106.668 32.8195L109.205 35.198ZM110.027 34.3207H113.505V26.1509H110.027H106.55V34.3207H110.027ZM110.027 26.1509L112.921 24.2219L111.879 22.6592L108.986 24.5883L106.092 26.5173L107.134 28.08L110.027 26.1509ZM108.986 24.5883V21.1107H103.146V24.5883V28.0659H108.986V24.5883ZM103.146 24.5883L100.611 22.2072L99.7616 23.1119L102.296 25.493L104.831 27.874L105.681 26.9693L103.146 24.5883ZM102.296 25.493H98.8186V33.6079H102.296H105.774V25.493H102.296Z" fill="black" mask="url(#path-9-outside-1_2_37)"/>
<path d="M15.745 39.5022V36.0245H12.2674V39.5022H15.745ZM58.5938 39.5022H62.0714V36.0245H58.5938V39.5022ZM58.5938 39.7763V43.2539H62.0714V39.7763H58.5938ZM15.745 39.7763H12.2674V43.2539H15.745V39.7763ZM62.2046 39.5022V36.0245H58.7269V39.5022H62.2046ZM66.9531 39.5022H70.4308V36.0245H66.9531V39.5022ZM66.9531 39.7763V43.2539H70.4308V39.7763H66.9531ZM62.2046 39.7763H58.7269V43.2539H62.2046V39.7763ZM69.6968 39.5022V36.0245H66.2191V39.5022H69.6968ZM114.386 39.5022H117.864V36.0245H114.386V39.5022ZM114.386 39.7763V43.2539H117.864V39.7763H114.386ZM69.6968 39.7763H66.2191V43.2539H69.6968V39.7763ZM15.745 39.5022V42.9798H58.5938V39.5022V36.0245H15.745V39.5022ZM58.5938 39.5022H55.1161V39.7763H58.5938H62.0714V39.5022H58.5938ZM58.5938 39.7763V36.2987H15.745V39.7763V43.2539H58.5938V39.7763ZM15.745 39.7763H19.2227V39.5022H15.745H12.2674V39.7763H15.745ZM62.2046 39.5022V42.9798H66.9531V39.5022V36.0245H62.2046V39.5022ZM66.9531 39.5022H63.4755V39.7763H66.9531H70.4308V39.5022H66.9531ZM66.9531 39.7763V36.2987H62.2046V39.7763V43.2539H66.9531V39.7763ZM62.2046 39.7763H65.6822V39.5022H62.2046H58.7269V39.7763H62.2046ZM69.6968 39.5022V42.9798H114.386V39.5022V36.0245H69.6968V39.5022ZM114.386 39.5022H110.909V39.7763H114.386H117.864V39.5022H114.386ZM114.386 39.7763V36.2987H69.6968V39.7763V43.2539H114.386V39.7763ZM69.6968 39.7763H73.1744V39.5022H69.6968H66.2191V39.7763H69.6968Z" fill="black" mask="url(#path-9-outside-1_2_37)"/>
</g>
<g filter="url(#filter2_d_2_37)">
<mask id="path-11-outside-2_2_37" maskUnits="userSpaceOnUse" x="3" y="39.2542" width="123" height="32" fill="black">
<rect fill="white" x="3" y="39.2542" width="123" height="32"/>
<path d="M11.1879 49.6967H18.8916L20.8381 52.6027L19.4399 54.0557L17.8224 51.6706H12.0378L11.1879 52.5478V60.6902L12.2571 62.2803H18.0417L19.6592 60.6079L20.7832 62.2803L18.8916 64.2542H11.2153L8.99468 60.9643V51.9721L11.1879 49.6967ZM27.4344 49.0935H36.0428L37.77 51.6431V64.2542H35.4671V62.856L33.1642 64.2542H27.4344L25.1315 60.8272V59.7306L29.4083 55.2894H35.4671V51.1222H27.4344V49.0935ZM27.4344 60.5531L28.5036 62.1706H35.4671V57.3729H30.313L27.4344 60.3338V60.5531ZM44.2019 49.6967H51.7685L53.1941 51.8076L51.8507 53.2332L50.7541 51.6157H45.1614L44.3115 52.3559V54.4395L45.3533 55.9199H51.8233L53.6875 58.7163V62.198L51.8233 64.2542H43.2149L42.1183 62.5544L43.4616 61.1562L44.2019 62.2803H50.9186L51.4943 61.6223V59.0453L50.6993 57.9212H44.2019L42.1183 54.7685V51.7254L44.2019 49.6967ZM59.3792 49.1758H63.2447L65.438 52.4656V62.2803H70.4001V64.2542H58.2826V62.2803H63.2447V52.7397L62.203 51.1771H59.3792V49.1758ZM62.9706 45.5844H65.7121V42.8428H62.9706V45.5844ZM74.721 49.6967H76.9142V51.0126L79.1349 49.6967H84.6453L86.866 52.9317V64.2542H84.6453V53.2058L83.6036 51.6706H77.7641L76.9142 52.5478V64.2542H74.721V49.6967ZM93.3801 49.6967H101.139L103.332 52.9865V61.9787L101.139 64.2542H93.4075L91.1869 60.9643V51.9721L93.3801 49.6967ZM93.3527 60.6902L94.4493 62.2803H100.261L101.084 61.403V53.2332L100.042 51.6706H94.2025L93.3527 52.5753V60.6902ZM109.956 49.6967H117.522L118.948 51.8076L117.604 53.2332L116.508 51.6157H110.915L110.065 52.3559V54.4395L111.107 55.9199H117.577L119.441 58.7163V62.198L117.577 64.2542H108.969L107.872 62.5544L109.215 61.1562L109.956 62.2803H116.672L117.248 61.6223V59.0453L116.453 57.9212H109.956L107.872 54.7685V51.7254L109.956 49.6967Z"/>
<path d="M6.80146 66.5844H121.881V66.8586H6.80146V66.5844Z"/>
</mask>
<path d="M11.1879 49.6967H18.8916L20.8381 52.6027L19.4399 54.0557L17.8224 51.6706H12.0378L11.1879 52.5478V60.6902L12.2571 62.2803H18.0417L19.6592 60.6079L20.7832 62.2803L18.8916 64.2542H11.2153L8.99468 60.9643V51.9721L11.1879 49.6967ZM27.4344 49.0935H36.0428L37.77 51.6431V64.2542H35.4671V62.856L33.1642 64.2542H27.4344L25.1315 60.8272V59.7306L29.4083 55.2894H35.4671V51.1222H27.4344V49.0935ZM27.4344 60.5531L28.5036 62.1706H35.4671V57.3729H30.313L27.4344 60.3338V60.5531ZM44.2019 49.6967H51.7685L53.1941 51.8076L51.8507 53.2332L50.7541 51.6157H45.1614L44.3115 52.3559V54.4395L45.3533 55.9199H51.8233L53.6875 58.7163V62.198L51.8233 64.2542H43.2149L42.1183 62.5544L43.4616 61.1562L44.2019 62.2803H50.9186L51.4943 61.6223V59.0453L50.6993 57.9212H44.2019L42.1183 54.7685V51.7254L44.2019 49.6967ZM59.3792 49.1758H63.2447L65.438 52.4656V62.2803H70.4001V64.2542H58.2826V62.2803H63.2447V52.7397L62.203 51.1771H59.3792V49.1758ZM62.9706 45.5844H65.7121V42.8428H62.9706V45.5844ZM74.721 49.6967H76.9142V51.0126L79.1349 49.6967H84.6453L86.866 52.9317V64.2542H84.6453V53.2058L83.6036 51.6706H77.7641L76.9142 52.5478V64.2542H74.721V49.6967ZM93.3801 49.6967H101.139L103.332 52.9865V61.9787L101.139 64.2542H93.4075L91.1869 60.9643V51.9721L93.3801 49.6967ZM93.3527 60.6902L94.4493 62.2803H100.261L101.084 61.403V53.2332L100.042 51.6706H94.2025L93.3527 52.5753V60.6902ZM109.956 49.6967H117.522L118.948 51.8076L117.604 53.2332L116.508 51.6157H110.915L110.065 52.3559V54.4395L111.107 55.9199H117.577L119.441 58.7163V62.198L117.577 64.2542H108.969L107.872 62.5544L109.215 61.1562L109.956 62.2803H116.672L117.248 61.6223V59.0453L116.453 57.9212H109.956L107.872 54.7685V51.7254L109.956 49.6967Z" fill="black"/>
<path d="M6.80146 66.5844H121.881V66.8586H6.80146V66.5844Z" fill="black"/>
<path d="M11.1879 49.6967V46.219H9.70979L8.68401 47.2833L11.1879 49.6967ZM18.8916 49.6967L21.7809 47.7613L20.7479 46.219H18.8916V49.6967ZM20.8381 52.6027L23.3439 55.014L25.2866 52.9951L23.7274 50.6673L20.8381 52.6027ZM19.4399 54.0557L16.5617 56.0076L18.9703 59.5592L21.9458 56.467L19.4399 54.0557ZM17.8224 51.6706L20.7006 49.7187L19.6659 48.1929H17.8224V51.6706ZM12.0378 51.6706V48.1929H10.5649L9.54 49.2508L12.0378 51.6706ZM11.1879 52.5478L8.69013 50.1281L7.71028 51.1396V52.5478H11.1879ZM11.1879 60.6902H7.71028V61.7506L8.30202 62.6307L11.1879 60.6902ZM12.2571 62.2803L9.37121 64.2208L10.4048 65.7579H12.2571V62.2803ZM18.0417 62.2803V65.7579H19.5163L20.5414 64.698L18.0417 62.2803ZM19.6592 60.6079L22.5455 58.668L20.1478 55.1007L17.1595 58.1902L19.6592 60.6079ZM20.7832 62.2803L23.294 64.6864L25.2317 62.6645L23.6695 60.3403L20.7832 62.2803ZM18.8916 64.2542V67.7318H20.3756L21.4024 66.6603L18.8916 64.2542ZM11.2153 64.2542L8.33289 66.1998L9.36698 67.7318H11.2153V64.2542ZM8.99468 60.9643H5.51706V62.0282L6.11225 62.91L8.99468 60.9643ZM8.99468 51.9721L6.49079 49.5587L5.51706 50.569V51.9721H8.99468ZM11.1879 49.6967V53.1743H18.8916V49.6967V46.219H11.1879V49.6967ZM18.8916 49.6967L16.0022 51.632L17.9487 54.538L20.8381 52.6027L23.7274 50.6673L21.7809 47.7613L18.8916 49.6967ZM20.8381 52.6027L18.3322 50.1914L16.934 51.6444L19.4399 54.0557L21.9458 56.467L23.3439 55.014L20.8381 52.6027ZM19.4399 54.0557L22.3181 52.1038L20.7006 49.7187L17.8224 51.6706L14.9442 53.6224L16.5617 56.0076L19.4399 54.0557ZM17.8224 51.6706V48.1929H12.0378V51.6706V55.1482H17.8224V51.6706ZM12.0378 51.6706L9.54 49.2508L8.69013 50.1281L11.1879 52.5478L13.6857 54.9676L14.5355 54.0903L12.0378 51.6706ZM11.1879 52.5478H7.71028V60.6902H11.1879H14.6655V52.5478H11.1879ZM11.1879 60.6902L8.30202 62.6307L9.37121 64.2208L12.2571 62.2803L15.143 60.3397L14.0738 58.7497L11.1879 60.6902ZM12.2571 62.2803V65.7579H18.0417V62.2803V58.8026H12.2571V62.2803ZM18.0417 62.2803L20.5414 64.698L22.1589 63.0257L19.6592 60.6079L17.1595 58.1902L15.542 59.8625L18.0417 62.2803ZM19.6592 60.6079L16.773 62.5479L17.897 64.2202L20.7832 62.2803L23.6695 60.3403L22.5455 58.668L19.6592 60.6079ZM20.7832 62.2803L18.2724 59.8741L16.3808 61.848L18.8916 64.2542L21.4024 66.6603L23.294 64.6864L20.7832 62.2803ZM18.8916 64.2542V60.7765H11.2153V64.2542V67.7318H18.8916V64.2542ZM11.2153 64.2542L14.0977 62.3085L11.8771 59.0187L8.99468 60.9643L6.11225 62.91L8.33289 66.1998L11.2153 64.2542ZM8.99468 60.9643H12.4723V51.9721H8.99468H5.51706V60.9643H8.99468ZM8.99468 51.9721L11.4986 54.3855L13.6918 52.11L11.1879 49.6967L8.68401 47.2833L6.49079 49.5587L8.99468 51.9721ZM27.4344 49.0935V45.6159H23.9568V49.0935H27.4344ZM36.0428 49.0935L38.922 47.1431L37.8874 45.6159H36.0428V49.0935ZM37.77 51.6431H41.2476V50.5761L40.6492 49.6927L37.77 51.6431ZM37.77 64.2542V67.7318H41.2476V64.2542H37.77ZM35.4671 64.2542H31.9895V67.7318H35.4671V64.2542ZM35.4671 62.856H38.9447V56.6762L33.6623 59.8833L35.4671 62.856ZM33.1642 64.2542V67.7318H34.1373L34.969 67.2268L33.1642 64.2542ZM27.4344 64.2542L24.548 66.1938L25.5815 67.7318H27.4344V64.2542ZM25.1315 60.8272H21.6539V61.8872L22.2451 62.7669L25.1315 60.8272ZM25.1315 59.7306L22.6265 57.3184L21.6539 58.3284V59.7306H25.1315ZM29.4083 55.2894V51.8117H27.9293L26.9033 52.8771L29.4083 55.2894ZM35.4671 55.2894V58.767H38.9447V55.2894H35.4671ZM35.4671 51.1222H38.9447V47.6446H35.4671V51.1222ZM27.4344 51.1222H23.9568V54.5999H27.4344V51.1222ZM27.4344 60.5531H23.9568V61.5986L24.5333 62.4708L27.4344 60.5531ZM28.5036 62.1706L25.6025 64.0883L26.6337 65.6482H28.5036V62.1706ZM35.4671 62.1706V65.6482H38.9447V62.1706H35.4671ZM35.4671 57.3729H38.9447V53.8953H35.4671V57.3729ZM30.313 57.3729V53.8953H28.8438L27.8196 54.9487L30.313 57.3729ZM27.4344 60.3338L24.941 57.9096L23.9568 58.9219V60.3338H27.4344ZM27.4344 49.0935V52.5711H36.0428V49.0935V45.6159H27.4344V49.0935ZM36.0428 49.0935L33.1636 51.0439L34.8908 53.5936L37.77 51.6431L40.6492 49.6927L38.922 47.1431L36.0428 49.0935ZM37.77 51.6431H34.2924V64.2542H37.77H41.2476V51.6431H37.77ZM37.77 64.2542V60.7765H35.4671V64.2542V67.7318H37.77V64.2542ZM35.4671 64.2542H38.9447V62.856H35.4671H31.9895V64.2542H35.4671ZM35.4671 62.856L33.6623 59.8833L31.3594 61.2815L33.1642 64.2542L34.969 67.2268L37.2719 65.8286L35.4671 62.856ZM33.1642 64.2542V60.7765H27.4344V64.2542V67.7318H33.1642V64.2542ZM27.4344 64.2542L30.3209 62.3145L28.018 58.8876L25.1315 60.8272L22.2451 62.7669L24.548 66.1938L27.4344 64.2542ZM25.1315 60.8272H28.6092V59.7306H25.1315H21.6539V60.8272H25.1315ZM25.1315 59.7306L27.6366 62.1429L31.9133 57.7016L29.4083 55.2894L26.9033 52.8771L22.6265 57.3184L25.1315 59.7306ZM29.4083 55.2894V58.767H35.4671V55.2894V51.8117H29.4083V55.2894ZM35.4671 55.2894H38.9447V51.1222H35.4671H31.9895V55.2894H35.4671ZM35.4671 51.1222V47.6446H27.4344V51.1222V54.5999H35.4671V51.1222ZM27.4344 51.1222H30.9121V49.0935H27.4344H23.9568V51.1222H27.4344ZM27.4344 60.5531L24.5333 62.4708L25.6025 64.0883L28.5036 62.1706L31.4047 60.2529L30.3355 58.6354L27.4344 60.5531ZM28.5036 62.1706V65.6482H35.4671V62.1706V58.693H28.5036V62.1706ZM35.4671 62.1706H38.9447V57.3729H35.4671H31.9895V62.1706H35.4671ZM35.4671 57.3729V53.8953H30.313V57.3729V60.8505H35.4671V57.3729ZM30.313 57.3729L27.8196 54.9487L24.941 57.9096L27.4344 60.3338L29.9279 62.7579L32.8065 59.7971L30.313 57.3729ZM27.4344 60.3338H23.9568V60.5531H27.4344H30.9121V60.3338H27.4344ZM44.2019 49.6967V46.219H42.7885L41.7758 47.205L44.2019 49.6967ZM51.7685 49.6967L54.6504 47.7504L53.6163 46.219H51.7685V49.6967ZM53.1941 51.8076L55.725 54.1926L57.6334 52.1674L56.076 49.8613L53.1941 51.8076ZM51.8507 53.2332L48.9723 55.1847L51.4066 58.7754L54.3817 55.6182L51.8507 53.2332ZM50.7541 51.6157L53.6326 49.6642L52.5979 48.1381H50.7541V51.6157ZM45.1614 51.6157V48.1381H43.8593L42.8773 48.9933L45.1614 51.6157ZM44.3115 52.3559L42.0275 49.7335L40.8339 50.7731V52.3559H44.3115ZM44.3115 54.4395H40.8339V55.5405L41.4675 56.4408L44.3115 54.4395ZM45.3533 55.9199L42.5093 57.9213L43.5481 59.3975H45.3533V55.9199ZM51.8233 55.9199L54.7169 53.9909L53.6845 52.4423H51.8233V55.9199ZM53.6875 58.7163H57.1652V57.6633L56.5811 56.7872L53.6875 58.7163ZM53.6875 62.198L56.2639 64.5339L57.1652 63.5398V62.198H53.6875ZM51.8233 64.2542V67.7318H53.3645L54.3996 66.59L51.8233 64.2542ZM43.2149 64.2542L40.2927 66.1395L41.32 67.7318H43.2149V64.2542ZM42.1183 62.5544L39.6106 60.145L37.7049 62.1284L39.1961 64.4397L42.1183 62.5544ZM43.4616 61.1562L46.3661 59.2436L43.971 55.6066L40.9539 58.7468L43.4616 61.1562ZM44.2019 62.2803L41.2974 64.1929L42.328 65.7579H44.2019V62.2803ZM50.9186 62.2803V65.7579H52.4966L53.5358 64.5703L50.9186 62.2803ZM51.4943 61.6223L54.1115 63.9123L54.9719 62.929V61.6223H51.4943ZM51.4943 59.0453H54.9719V57.9397L54.3335 57.037L51.4943 59.0453ZM50.6993 57.9212L53.5385 55.913L52.4991 54.4436H50.6993V57.9212ZM44.2019 57.9212L41.3006 59.8386L42.3317 61.3988H44.2019V57.9212ZM42.1183 54.7685H38.6407V55.8138L39.217 56.6859L42.1183 54.7685ZM42.1183 51.7254L39.6922 49.2338L38.6407 50.2577V51.7254H42.1183ZM44.2019 49.6967V53.1743H51.7685V49.6967V46.219H44.2019V49.6967ZM51.7685 49.6967L48.8865 51.6429L50.3121 53.7539L53.1941 51.8076L56.076 49.8613L54.6504 47.7504L51.7685 49.6967ZM53.1941 51.8076L50.6631 49.4227L49.3197 50.8483L51.8507 53.2332L54.3817 55.6182L55.725 54.1926L53.1941 51.8076ZM51.8507 53.2332L54.7292 51.2817L53.6326 49.6642L50.7541 51.6157L47.8756 53.5672L48.9723 55.1847L51.8507 53.2332ZM50.7541 51.6157V48.1381H45.1614V51.6157V55.0933H50.7541V51.6157ZM45.1614 51.6157L42.8773 48.9933L42.0275 49.7335L44.3115 52.3559L46.5956 54.9783L47.4454 54.2381L45.1614 51.6157ZM44.3115 52.3559H40.8339V54.4395H44.3115H47.7891V52.3559H44.3115ZM44.3115 54.4395L41.4675 56.4408L42.5093 57.9213L45.3533 55.9199L48.1973 53.9186L47.1555 52.4381L44.3115 54.4395ZM45.3533 55.9199V59.3975H51.8233V55.9199V52.4423H45.3533V55.9199ZM51.8233 55.9199L48.9297 57.849L50.794 60.6453L53.6875 58.7163L56.5811 56.7872L54.7169 53.9909L51.8233 55.9199ZM53.6875 58.7163H50.2099V62.198H53.6875H57.1652V58.7163H53.6875ZM53.6875 62.198L51.1112 59.8621L49.247 61.9183L51.8233 64.2542L54.3996 66.59L56.2639 64.5339L53.6875 62.198ZM51.8233 64.2542V60.7765H43.2149V64.2542V67.7318H51.8233V64.2542ZM43.2149 64.2542L46.1371 62.3688L45.0405 60.6691L42.1183 62.5544L39.1961 64.4397L40.2927 66.1395L43.2149 64.2542ZM42.1183 62.5544L44.626 64.9638L45.9694 63.5656L43.4616 61.1562L40.9539 58.7468L39.6106 60.145L42.1183 62.5544ZM43.4616 61.1562L40.5572 63.0689L41.2974 64.1929L44.2019 62.2803L47.1063 60.3676L46.3661 59.2436L43.4616 61.1562ZM44.2019 62.2803V65.7579H50.9186V62.2803V58.8026H44.2019V62.2803ZM50.9186 62.2803L53.5358 64.5703L54.1115 63.9123L51.4943 61.6223L48.8771 59.3323L48.3014 59.9902L50.9186 62.2803ZM51.4943 61.6223H54.9719V59.0453H51.4943H48.0167V61.6223H51.4943ZM51.4943 59.0453L54.3335 57.037L53.5385 55.913L50.6993 57.9212L47.8601 59.9294L48.6551 61.0535L51.4943 59.0453ZM50.6993 57.9212V54.4436H44.2019V57.9212V61.3988H50.6993V57.9212ZM44.2019 57.9212L47.1031 56.0039L45.0196 52.8511L42.1183 54.7685L39.217 56.6859L41.3006 59.8386L44.2019 57.9212ZM42.1183 54.7685H45.5959V51.7254H42.1183H38.6407V54.7685H42.1183ZM42.1183 51.7254L44.5443 54.217L46.6279 52.1883L44.2019 49.6967L41.7758 47.205L39.6922 49.2338L42.1183 51.7254ZM59.3792 49.1758V45.6981H55.9016V49.1758H59.3792ZM63.2447 49.1758L66.1383 47.2467L65.1059 45.6981H63.2447V49.1758ZM65.438 52.4656H68.9156V51.4127L68.3315 50.5366L65.438 52.4656ZM65.438 62.2803H61.9603V65.7579H65.438V62.2803ZM70.4001 62.2803H73.8777V58.8026H70.4001V62.2803ZM70.4001 64.2542V67.7318H73.8777V64.2542H70.4001ZM58.2826 64.2542H54.805V67.7318H58.2826V64.2542ZM58.2826 62.2803V58.8026H54.805V62.2803H58.2826ZM63.2447 62.2803V65.7579H66.7224V62.2803H63.2447ZM63.2447 52.7397H66.7224V51.6868L66.1383 50.8107L63.2447 52.7397ZM62.203 51.1771L65.0965 49.248L64.0641 47.6995H62.203V51.1771ZM59.3792 51.1771H55.9016V54.6547H59.3792V51.1771ZM62.9706 45.5844H59.493V49.062H62.9706V45.5844ZM65.7121 45.5844V49.062H69.1897V45.5844H65.7121ZM65.7121 42.8428H69.1897V39.3652H65.7121V42.8428ZM62.9706 42.8428V39.3652H59.493V42.8428H62.9706ZM59.3792 49.1758V52.6534H63.2447V49.1758V45.6981H59.3792V49.1758ZM63.2447 49.1758L60.3512 51.1048L62.5444 54.3946L65.438 52.4656L68.3315 50.5366L66.1383 47.2467L63.2447 49.1758ZM65.438 52.4656H61.9603V62.2803H65.438H68.9156V52.4656H65.438ZM65.438 62.2803V65.7579H70.4001V62.2803V58.8026H65.438V62.2803ZM70.4001 62.2803H66.9225V64.2542H70.4001H73.8777V62.2803H70.4001ZM70.4001 64.2542V60.7765H58.2826V64.2542V67.7318H70.4001V64.2542ZM58.2826 64.2542H61.7602V62.2803H58.2826H54.805V64.2542H58.2826ZM58.2826 62.2803V65.7579H63.2447V62.2803V58.8026H58.2826V62.2803ZM63.2447 62.2803H66.7224V52.7397H63.2447H59.7671V62.2803H63.2447ZM63.2447 52.7397L66.1383 50.8107L65.0965 49.248L62.203 51.1771L59.3094 53.1061L60.3512 54.6688L63.2447 52.7397ZM62.203 51.1771V47.6995H59.3792V51.1771V54.6547H62.203V51.1771ZM59.3792 51.1771H62.8568V49.1758H59.3792H55.9016V51.1771H59.3792ZM62.9706 45.5844V49.062H65.7121V45.5844V42.1067H62.9706V45.5844ZM65.7121 45.5844H69.1897V42.8428H65.7121H62.2345V45.5844H65.7121ZM65.7121 42.8428V39.3652H62.9706V42.8428V46.3205H65.7121V42.8428ZM62.9706 42.8428H59.493V45.5844H62.9706H66.4482V42.8428H62.9706ZM74.721 49.6967V46.219H71.2434V49.6967H74.721ZM76.9142 49.6967H80.3919V46.219H76.9142V49.6967ZM76.9142 51.0126H73.4366V57.1158L78.6871 54.0044L76.9142 51.0126ZM79.1349 49.6967V46.219H78.1819L77.362 46.7049L79.1349 49.6967ZM84.6453 49.6967L87.5125 47.7285L86.4763 46.219H84.6453V49.6967ZM86.866 52.9317H90.3436V51.8529L89.7331 50.9635L86.866 52.9317ZM86.866 64.2542V67.7318H90.3436V64.2542H86.866ZM84.6453 64.2542H81.1677V67.7318H84.6453V64.2542ZM84.6453 53.2058H88.123V52.1373L87.523 51.2531L84.6453 53.2058ZM83.6036 51.6706L86.4812 49.7179L85.4464 48.1929H83.6036V51.6706ZM77.7641 51.6706V48.1929H76.2912L75.2663 49.2508L77.7641 51.6706ZM76.9142 52.5478L74.4165 50.1281L73.4366 51.1396V52.5478H76.9142ZM76.9142 64.2542V67.7318H80.3919V64.2542H76.9142ZM74.721 64.2542H71.2434V67.7318H74.721V64.2542ZM74.721 49.6967V53.1743H76.9142V49.6967V46.219H74.721V49.6967ZM76.9142 49.6967H73.4366V51.0126H76.9142H80.3919V49.6967H76.9142ZM76.9142 51.0126L78.6871 54.0044L80.9078 52.6884L79.1349 49.6967L77.362 46.7049L75.1413 48.0208L76.9142 51.0126ZM79.1349 49.6967V53.1743H84.6453V49.6967V46.219H79.1349V49.6967ZM84.6453 49.6967L81.7782 51.6648L83.9989 54.8998L86.866 52.9317L89.7331 50.9635L87.5125 47.7285L84.6453 49.6967ZM86.866 52.9317H83.3884V64.2542H86.866H90.3436V52.9317H86.866ZM86.866 64.2542V60.7765H84.6453V64.2542V67.7318H86.866V64.2542ZM84.6453 64.2542H88.123V53.2058H84.6453H81.1677V64.2542H84.6453ZM84.6453 53.2058L87.523 51.2531L86.4812 49.7179L83.6036 51.6706L80.7259 53.6232L81.7677 55.1585L84.6453 53.2058ZM83.6036 51.6706V48.1929H77.7641V51.6706V55.1482H83.6036V51.6706ZM77.7641 51.6706L75.2663 49.2508L74.4165 50.1281L76.9142 52.5478L79.412 54.9676L80.2619 54.0903L77.7641 51.6706ZM76.9142 52.5478H73.4366V64.2542H76.9142H80.3919V52.5478H76.9142ZM76.9142 64.2542V60.7765H74.721V64.2542V67.7318H76.9142V64.2542ZM74.721 64.2542H78.1986V49.6967H74.721H71.2434V64.2542H74.721ZM93.3801 49.6967V46.219H91.902L90.8762 47.2833L93.3801 49.6967ZM101.139 49.6967L104.032 47.7676L103 46.219H101.139V49.6967ZM103.332 52.9865H106.809V51.9335L106.225 51.0574L103.332 52.9865ZM103.332 61.9787L105.836 64.3921L106.809 63.3818V61.9787H103.332ZM101.139 64.2542V67.7318H102.617L103.642 66.6675L101.139 64.2542ZM93.4075 64.2542L90.5251 66.1998L91.5592 67.7318H93.4075V64.2542ZM91.1869 60.9643H87.7093V62.0282L88.3045 62.91L91.1869 60.9643ZM91.1869 51.9721L88.683 49.5587L87.7093 50.569V51.9721H91.1869ZM93.3527 60.6902H89.8751V61.7731L90.4899 62.6645L93.3527 60.6902ZM94.4493 62.2803L91.5865 64.2546L92.6232 65.7579H94.4493V62.2803ZM100.261 62.2803V65.7579H101.768L102.798 64.6587L100.261 62.2803ZM101.084 61.403L103.621 63.7815L104.561 62.7782V61.403H101.084ZM101.084 53.2332H104.561V52.1803L103.977 51.3042L101.084 53.2332ZM100.042 51.6706L102.936 49.7415L101.903 48.1929H100.042V51.6706ZM94.2026 51.6706V48.1929H92.698L91.6679 49.2895L94.2026 51.6706ZM93.3527 52.5753L90.818 50.1942L89.8751 51.198V52.5753H93.3527ZM93.3801 49.6967V53.1743H101.139V49.6967V46.219H93.3801V49.6967ZM101.139 49.6967L98.245 51.6257L100.438 54.9155L103.332 52.9865L106.225 51.0574L104.032 47.7676L101.139 49.6967ZM103.332 52.9865H99.8542V61.9787H103.332H106.809V52.9865H103.332ZM103.332 61.9787L100.828 59.5653L98.6347 61.8408L101.139 64.2542L103.642 66.6675L105.836 64.3921L103.332 61.9787ZM101.139 64.2542V60.7765H93.4075V64.2542V67.7318H101.139V64.2542ZM93.4075 64.2542L96.2899 62.3085L94.0693 59.0187L91.1869 60.9643L88.3045 62.91L90.5251 66.1998L93.4075 64.2542ZM91.1869 60.9643H94.6645V51.9721H91.1869H87.7093V60.9643H91.1869ZM91.1869 51.9721L93.6908 54.3855L95.884 52.11L93.3801 49.6967L90.8762 47.2833L88.683 49.5587L91.1869 51.9721ZM93.3527 60.6902L90.4899 62.6645L91.5865 64.2546L94.4493 62.2803L97.3121 60.3059L96.2155 58.7158L93.3527 60.6902ZM94.4493 62.2803V65.7579H100.261V62.2803V58.8026H94.4493V62.2803ZM100.261 62.2803L102.798 64.6587L103.621 63.7815L101.084 61.403L98.5467 59.0245L97.7243 59.9018L100.261 62.2803ZM101.084 61.403H104.561V53.2332H101.084H97.6062V61.403H101.084ZM101.084 53.2332L103.977 51.3042L102.936 49.7415L100.042 51.6706L97.1484 53.5996L98.1902 55.1623L101.084 53.2332ZM100.042 51.6706V48.1929H94.2026V51.6706V55.1482H100.042V51.6706ZM94.2026 51.6706L91.6679 49.2895L90.818 50.1942L93.3527 52.5753L95.8873 54.9563L96.7372 54.0516L94.2026 51.6706ZM93.3527 52.5753H89.8751V60.6902H93.3527H96.8303V52.5753H93.3527ZM109.956 49.6967V46.219H108.542L107.53 47.205L109.956 49.6967ZM117.522 49.6967L120.404 47.7504L119.37 46.219H117.522V49.6967ZM118.948 51.8076L121.479 54.1926L123.387 52.1674L121.83 49.8613L118.948 51.8076ZM117.604 53.2332L114.726 55.1847L117.16 58.7754L120.135 55.6182L117.604 53.2332ZM116.508 51.6157L119.386 49.6642L118.352 48.1381H116.508V51.6157ZM110.915 51.6157V48.1381H109.613L108.631 48.9933L110.915 51.6157ZM110.065 52.3559L107.781 49.7335L106.588 50.7731V52.3559H110.065ZM110.065 54.4395H106.588V55.5405L107.221 56.4408L110.065 54.4395ZM111.107 55.9199L108.263 57.9213L109.302 59.3975H111.107V55.9199ZM117.577 55.9199L120.471 53.9909L119.438 52.4423H117.577V55.9199ZM119.441 58.7163H122.919V57.6633L122.335 56.7872L119.441 58.7163ZM119.441 62.198L122.018 64.5339L122.919 63.5398V62.198H119.441ZM117.577 64.2542V67.7318H119.118L120.153 66.59L117.577 64.2542ZM108.969 64.2542L106.046 66.1395L107.074 67.7318H108.969V64.2542ZM107.872 62.5544L105.364 60.145L103.459 62.1284L104.95 64.4397L107.872 62.5544ZM109.215 61.1562L112.12 59.2436L109.725 55.6066L106.708 58.7468L109.215 61.1562ZM109.956 62.2803L107.051 64.1929L108.082 65.7579H109.956V62.2803ZM116.672 62.2803V65.7579H118.25L119.29 64.5703L116.672 62.2803ZM117.248 61.6223L119.865 63.9123L120.726 62.929V61.6223H117.248ZM117.248 59.0453H120.726V57.9397L120.087 57.037L117.248 59.0453ZM116.453 57.9212L119.292 55.913L118.253 54.4436H116.453V57.9212ZM109.956 57.9212L107.054 59.8386L108.085 61.3988H109.956V57.9212ZM107.872 54.7685H104.394V55.8138L104.971 56.6859L107.872 54.7685ZM107.872 51.7254L105.446 49.2338L104.394 50.2577V51.7254H107.872ZM109.956 49.6967V53.1743H117.522V49.6967V46.219H109.956V49.6967ZM117.522 49.6967L114.64 51.6429L116.066 53.7539L118.948 51.8076L121.83 49.8613L120.404 47.7504L117.522 49.6967ZM118.948 51.8076L116.417 49.4227L115.073 50.8483L117.604 53.2332L120.135 55.6182L121.479 54.1926L118.948 51.8076ZM117.604 53.2332L120.483 51.2817L119.386 49.6642L116.508 51.6157L113.629 53.5672L114.726 55.1847L117.604 53.2332ZM116.508 51.6157V48.1381H110.915V51.6157V55.0933H116.508V51.6157ZM110.915 51.6157L108.631 48.9933L107.781 49.7335L110.065 52.3559L112.349 54.9783L113.199 54.2381L110.915 51.6157ZM110.065 52.3559H106.588V54.4395H110.065H113.543V52.3559H110.065ZM110.065 54.4395L107.221 56.4408L108.263 57.9213L111.107 55.9199L113.951 53.9186L112.909 52.4381L110.065 54.4395ZM111.107 55.9199V59.3975H117.577V55.9199V52.4423H111.107V55.9199ZM117.577 55.9199L114.684 57.849L116.548 60.6453L119.441 58.7163L122.335 56.7872L120.471 53.9909L117.577 55.9199ZM119.441 58.7163H115.964V62.198H119.441H122.919V58.7163H119.441ZM119.441 62.198L116.865 59.8621L115.001 61.9183L117.577 64.2542L120.153 66.59L122.018 64.5339L119.441 62.198ZM117.577 64.2542V60.7765H108.969V64.2542V67.7318H117.577V64.2542ZM108.969 64.2542L111.891 62.3688L110.794 60.6691L107.872 62.5544L104.95 64.4397L106.046 66.1395L108.969 64.2542ZM107.872 62.5544L110.38 64.9638L111.723 63.5656L109.215 61.1562L106.708 58.7468L105.364 60.145L107.872 62.5544ZM109.215 61.1562L106.311 63.0689L107.051 64.1929L109.956 62.2803L112.86 60.3676L112.12 59.2436L109.215 61.1562ZM109.956 62.2803V65.7579H116.672V62.2803V58.8026H109.956V62.2803ZM116.672 62.2803L119.29 64.5703L119.865 63.9123L117.248 61.6223L114.631 59.3323L114.055 59.9902L116.672 62.2803ZM117.248 61.6223H120.726V59.0453H117.248H113.77V61.6223H117.248ZM117.248 59.0453L120.087 57.037L119.292 55.913L116.453 57.9212L113.614 59.9294L114.409 61.0535L117.248 59.0453ZM116.453 57.9212V54.4436H109.956V57.9212V61.3988H116.453V57.9212ZM109.956 57.9212L112.857 56.0039L110.773 52.8511L107.872 54.7685L104.971 56.6859L107.054 59.8386L109.956 57.9212ZM107.872 54.7685H111.35V51.7254H107.872H104.394V54.7685H107.872ZM107.872 51.7254L110.298 54.217L112.382 52.1883L109.956 49.6967L107.53 47.205L105.446 49.2338L107.872 51.7254Z" fill="black" mask="url(#path-11-outside-2_2_37)"/>
<path d="M6.80146 66.5844V63.1068H3.32384V66.5844H6.80146ZM121.881 66.5844H125.359V63.1068H121.881V66.5844ZM121.881 66.8586V70.3362H125.359V66.8586H121.881ZM6.80146 66.8586H3.32384V70.3362H6.80146V66.8586ZM6.80146 66.5844V70.0621H121.881V66.5844V63.1068H6.80146V66.5844ZM121.881 66.5844H118.404V66.8586H121.881H125.359V66.5844H121.881ZM121.881 66.8586V63.381H6.80146V66.8586V70.3362H121.881V66.8586ZM6.80146 66.8586H10.2791V66.5844H6.80146H3.32384V66.8586H6.80146Z" fill="black" mask="url(#path-11-outside-2_2_37)"/>
</g>
<g filter="url(#filter3_d_2_37)">
<path d="M20.1315 26.0922H27.8352L29.7817 28.9982L28.3835 30.4512L26.766 28.0661H20.9814L20.1315 28.9433V37.0857L21.2007 38.6758H26.9853L28.6028 37.0034L29.7268 38.6758L27.8352 40.6497H20.1589L17.9383 37.3598V28.3676L20.1315 26.0922ZM34.2122 26.0922H35.4185L38.0229 27.6548L39.5308 26.0922H45.1783L46.6039 28.1757L44.959 29.2997L44.1365 28.0661H40.3806L39.1744 29.3546V38.6758H43.0399V40.6497H34.2122V38.6758H36.9812V29.6287L35.912 28.0661H34.2122V26.0922ZM60.6846 26.0647H62.9053V41.9656L58.464 46.5988H50.7877V44.5975H57.5593L60.6846 41.3899V40.6497H53.5293L50.7877 36.5922V26.0647H52.981V36.318L54.5985 38.6483H60.6846V26.0647ZM71.6126 26.0922H77.1779L79.3437 29.382V38.3742L77.1505 40.6497H71.64L69.4194 39.3337V46.5714H67.2262V26.0922H69.4194V27.4355L71.6126 26.0922ZM69.4194 37.0857L70.516 38.6758H76.3006L77.1231 37.8259V29.6561L76.0813 28.0935H70.2693L69.4194 28.9433V37.0857ZM86.4061 20.1431H88.5994V26.0647H93.0406V28.0661H88.5994V37.0857L89.6686 38.6483H92.4375L94.0824 37.0034L95.2064 38.6483L93.3422 40.6497H88.5994L86.4061 37.4147V28.0661H84.2403V26.0647H86.4061V20.1431ZM102.324 26.0922H110.082L112.275 29.382V38.3742L110.082 40.6497H102.351L100.13 37.3598V28.3676L102.324 26.0922ZM102.296 37.0857L103.393 38.6758H109.205L110.027 37.7985V29.6287L108.986 28.0661H103.146L102.296 28.9708V37.0857Z" fill="#E2E2E2"/>
<path d="M15.745 42.98H58.5938V43.2541H15.745V42.98ZM62.2046 42.98H66.9531V43.2541H62.2046V42.98ZM69.6968 42.98H114.386V43.2541H69.6968V42.98Z" fill="#E2E2E2"/>
</g>
<g filter="url(#filter4_d_2_37)">
<path d="M11.1879 53.1739H18.8916L20.8381 56.08L19.4399 57.533L17.8224 55.1478H12.0378L11.1879 56.0251V64.1675L12.2571 65.7575H18.0417L19.6592 64.0852L20.7832 65.7575L18.8916 67.7314H11.2153L8.99468 64.4416V55.4494L11.1879 53.1739ZM27.4344 52.5708H36.0428L37.77 55.1204V67.7314H35.4671V66.3333L33.1642 67.7314H27.4344L25.1315 64.3045V63.2079L29.4083 58.7667H35.4671V54.5995H27.4344V52.5708ZM27.4344 64.0304L28.5036 65.6479H35.4671V60.8502H30.313L27.4344 63.8111V64.0304ZM44.2019 53.1739H51.7685L53.1941 55.2849L51.8507 56.7105L50.7541 55.093H45.1614L44.3115 55.8332V57.9168L45.3533 59.3972H51.8233L53.6875 62.1936V65.6753L51.8233 67.7314H43.2149L42.1183 66.0317L43.4616 64.6335L44.2019 65.7575H50.9186L51.4943 65.0996V62.5225L50.6993 61.3985H44.2019L42.1183 58.2458V55.2027L44.2019 53.1739ZM59.3792 52.6531H63.2447L65.438 55.9429V65.7575H70.4001V67.7314H58.2826V65.7575H63.2447V56.217L62.203 54.6544H59.3792V52.6531ZM62.9706 49.0617H65.7121V46.3201H62.9706V49.0617ZM74.721 53.1739H76.9142V54.4899L79.1349 53.1739H84.6453L86.866 56.4089V67.7314H84.6453V56.6831L83.6036 55.1478H77.7641L76.9142 56.0251V67.7314H74.721V53.1739ZM93.3801 53.1739H101.139L103.332 56.4638V65.456L101.139 67.7314H93.4075L91.1869 64.4416V55.4494L93.3801 53.1739ZM93.3527 64.1675L94.4493 65.7575H100.261L101.084 64.8803V56.7105L100.042 55.1478H94.2025L93.3527 56.0525V64.1675ZM109.956 53.1739H117.522L118.948 55.2849L117.604 56.7105L116.508 55.093H110.915L110.065 55.8332V57.9168L111.107 59.3972H117.577L119.441 62.1936V65.6753L117.577 67.7314H108.969L107.872 66.0317L109.215 64.6335L109.956 65.7575H116.672L117.248 65.0996V62.5225L116.453 61.3985H109.956L107.872 58.2458V55.2027L109.956 53.1739Z" fill="#E2E2E2"/>
<path d="M6.80146 70.0617H121.881V70.3359H6.80146V70.0617Z" fill="#E2E2E2"/>
</g>
<defs>
<filter id="filter0_d_2_37" x="118.097" y="22.6056" width="35.6943" height="24.3618" filterUnits="userSpaceOnUse" color-interpolation-filters="sRGB">
<feFlood flood-opacity="0" result="BackgroundImageFix"/>
<feColorMatrix in="SourceAlpha" type="matrix" values="0 0 0 0 0 0 0 0 0 0 0 0 0 0 0 0 0 0 127 0" result="hardAlpha"/>
<feOffset dy="1.9202"/>
<feGaussianBlur stdDeviation="0.960098"/>
<feComposite in2="hardAlpha" operator="out"/>
<feColorMatrix type="matrix" values="0 0 0 0 0 0 0 0 0 0 0 0 0 0 0 0 0 0 0.25 0"/>
<feBlend mode="normal" in2="BackgroundImageFix" result="effect1_dropShadow_2_37"/>
<feBlend mode="normal" in="SourceGraphic" in2="effect1_dropShadow_2_37" result="shape"/>
</filter>
<filter id="filter1_d_2_37" x="9.7172" y="13.1876" width="110.697" height="38.5115" filterUnits="userSpaceOnUse" color-interpolation-filters="sRGB">
<feFlood flood-opacity="0" result="BackgroundImageFix"/>
<feColorMatrix in="SourceAlpha" type="matrix" values="0 0 0 0 0 0 0 0 0 0 0 0 0 0 0 0 0 0 127 0" result="hardAlpha"/>
<feOffset dy="2.55026"/>
<feGaussianBlur stdDeviation="1.27513"/>
<feComposite in2="hardAlpha" operator="out"/>
<feColorMatrix type="matrix" values="0 0 0 0 0 0 0 0 0 0 0 0 0 0 0 0 0 0 0.25 0"/>
<feBlend mode="normal" in2="BackgroundImageFix" result="effect1_dropShadow_2_37"/>
<feBlend mode="normal" in="SourceGraphic" in2="effect1_dropShadow_2_37" result="shape"/>
</filter>
<filter id="filter2_d_2_37" x="0.773597" y="39.3652" width="127.136" height="36.0715" filterUnits="userSpaceOnUse" color-interpolation-filters="sRGB">
<feFlood flood-opacity="0" result="BackgroundImageFix"/>
<feColorMatrix in="SourceAlpha" type="matrix" values="0 0 0 0 0 0 0 0 0 0 0 0 0 0 0 0 0 0 127 0" result="hardAlpha"/>
<feOffset dy="2.55026"/>
<feGaussianBlur stdDeviation="1.27513"/>
<feComposite in2="hardAlpha" operator="out"/>
<feColorMatrix type="matrix" values="0 0 0 0 0 0 0 0 0 0 0 0 0 0 0 0 0 0 0.25 0"/>
<feBlend mode="normal" in2="BackgroundImageFix" result="effect1_dropShadow_2_37"/>
<feBlend mode="normal" in="SourceGraphic" in2="effect1_dropShadow_2_37" result="shape"/>
</filter>
<filter id="filter3_d_2_37" x="13.1948" y="20.1431" width="103.742" height="31.5562" filterUnits="userSpaceOnUse" color-interpolation-filters="sRGB">
<feFlood flood-opacity="0" result="BackgroundImageFix"/>
<feColorMatrix in="SourceAlpha" type="matrix" values="0 0 0 0 0 0 0 0 0 0 0 0 0 0 0 0 0 0 127 0" result="hardAlpha"/>
<feOffset dy="2.55026"/>
<feGaussianBlur stdDeviation="1.27513"/>
<feComposite in2="hardAlpha" operator="out"/>
<feColorMatrix type="matrix" values="0 0 0 0 0 0 0 0 0 0 0 0 0 0 0 0 0 0 0.25 0"/>
<feBlend mode="normal" in2="BackgroundImageFix" result="effect1_dropShadow_2_37"/>
<feBlend mode="normal" in="SourceGraphic" in2="effect1_dropShadow_2_37" result="shape"/>
</filter>
<filter id="filter4_d_2_37" x="4.2512" y="46.3202" width="120.18" height="29.1163" filterUnits="userSpaceOnUse" color-interpolation-filters="sRGB">
<feFlood flood-opacity="0" result="BackgroundImageFix"/>
<feColorMatrix in="SourceAlpha" type="matrix" values="0 0 0 0 0 0 0 0 0 0 0 0 0 0 0 0 0 0 127 0" result="hardAlpha"/>
<feOffset dy="2.55026"/>
<feGaussianBlur stdDeviation="1.27513"/>
<feComposite in2="hardAlpha" operator="out"/>
<feColorMatrix type="matrix" values="0 0 0 0 0 0 0 0 0 0 0 0 0 0 0 0 0 0 0.25 0"/>
<feBlend mode="normal" in2="BackgroundImageFix" result="effect1_dropShadow_2_37"/>
<feBlend mode="normal" in="SourceGraphic" in2="effect1_dropShadow_2_37" result="shape"/>
</filter>
</defs>
</svg>
